<svg width="273" height="42" viewBox="0 0 273 42" fill="none" xmlns="http://www.w3.org/2000/svg">
<path d="M110.128 30.288C108.384 30.288 106.808 29.912 105.4 29.16C104.008 28.408 102.912 27.376 102.112 26.064C101.328 24.736 100.936 23.248 100.936 21.6C100.936 19.952 101.328 18.472 102.112 17.16C102.912 15.832 104.008 14.792 105.4 14.04C106.808 13.288 108.384 12.912 110.128 12.912C111.872 12.912 113.44 13.288 114.832 14.04C116.224 14.792 117.32 15.832 118.12 17.16C118.92 18.472 119.32 19.952 119.32 21.6C119.32 23.248 118.92 24.736 118.12 26.064C117.32 27.376 116.224 28.408 114.832 29.16C113.44 29.912 111.872 30.288 110.128 30.288ZM110.128 26.976C111.12 26.976 112.016 26.752 112.816 26.304C113.616 25.84 114.24 25.2 114.688 24.384C115.152 23.568 115.384 22.64 115.384 21.6C115.384 20.56 115.152 19.632 114.688 18.816C114.24 18 113.616 17.368 112.816 16.92C112.016 16.456 111.12 16.224 110.128 16.224C109.136 16.224 108.24 16.456 107.44 16.92C106.64 17.368 106.008 18 105.544 18.816C105.096 19.632 104.872 20.56 104.872 21.6C104.872 22.64 105.096 23.568 105.544 24.384C106.008 25.2 106.64 25.84 107.44 26.304C108.24 26.752 109.136 26.976 110.128 26.976ZM131.146 12.912C133.146 12.912 134.706 13.544 135.826 14.808C136.946 16.056 137.506 17.84 137.506 20.16V30H133.618V20.28C133.618 18.936 133.298 17.928 132.658 17.256C132.034 16.568 131.162 16.224 130.042 16.224C128.858 16.224 127.906 16.592 127.186 17.328C126.482 18.048 126.13 19.12 126.13 20.544V30H122.242V13.2H126.01V15.24C126.586 14.472 127.306 13.896 128.17 13.512C129.034 13.112 130.026 12.912 131.146 12.912ZM153.584 17.904C152.144 17.072 150.6 16.536 148.952 16.296V30H145.064V16.296C143.416 16.536 141.864 17.072 140.408 17.904L139.088 15C140.24 14.312 141.488 13.792 142.832 13.44C144.176 13.088 145.56 12.912 146.984 12.912C148.424 12.912 149.816 13.088 151.16 13.44C152.52 13.792 153.768 14.312 154.904 15L153.584 17.904ZM164.55 30.288C162.806 30.288 161.23 29.912 159.822 29.16C158.43 28.408 157.334 27.376 156.534 26.064C155.75 24.736 155.358 23.248 155.358 21.6C155.358 19.952 155.75 18.472 156.534 17.16C157.334 15.832 158.43 14.792 159.822 14.04C161.23 13.288 162.806 12.912 164.55 12.912C166.294 12.912 167.862 13.288 169.254 14.04C170.646 14.792 171.742 15.832 172.542 17.16C173.342 18.472 173.742 19.952 173.742 21.6C173.742 23.248 173.342 24.736 172.542 26.064C171.742 27.376 170.646 28.408 169.254 29.16C167.862 29.912 166.294 30.288 164.55 30.288ZM164.55 26.976C165.542 26.976 166.438 26.752 167.238 26.304C168.038 25.84 168.662 25.2 169.11 24.384C169.574 23.568 169.806 22.64 169.806 21.6C169.806 20.56 169.574 19.632 169.11 18.816C168.662 18 168.038 17.368 167.238 16.92C166.438 16.456 165.542 16.224 164.55 16.224C163.558 16.224 162.662 16.456 161.862 16.92C161.062 17.368 160.43 18 159.966 18.816C159.518 19.632 159.294 20.56 159.294 21.6C159.294 22.64 159.518 23.568 159.966 24.384C160.43 25.2 161.062 25.84 161.862 26.304C162.662 26.752 163.558 26.976 164.55 26.976ZM182.184 30.288C180.856 30.288 179.568 30.112 178.32 29.76C177.088 29.392 176.096 28.92 175.344 28.344L176.664 25.416C177.384 25.944 178.24 26.368 179.232 26.688C180.224 27.008 181.216 27.168 182.208 27.168C183.312 27.168 184.128 27.008 184.656 26.688C185.184 26.352 185.448 25.912 185.448 25.368C185.448 24.968 185.288 24.64 184.968 24.384C184.664 24.112 184.264 23.896 183.768 23.736C183.288 23.576 182.632 23.4 181.8 23.208C180.52 22.904 179.472 22.6 178.656 22.296C177.84 21.992 177.136 21.504 176.544 20.832C175.968 20.16 175.68 19.264 175.68 18.144C175.68 17.168 175.944 16.288 176.472 15.504C177 14.704 177.792 14.072 178.848 13.608C179.92 13.144 181.224 12.912 182.76 12.912C183.832 12.912 184.88 13.04 185.904 13.296C186.928 13.552 187.824 13.92 188.592 14.4L187.392 17.352C185.84 16.472 184.288 16.032 182.736 16.032C181.648 16.032 180.84 16.208 180.312 16.56C179.8 16.912 179.544 17.376 179.544 17.952C179.544 18.528 179.84 18.96 180.432 19.248C181.04 19.52 181.96 19.792 183.192 20.064C184.472 20.368 185.52 20.672 186.336 20.976C187.152 21.28 187.848 21.76 188.424 22.416C189.016 23.072 189.312 23.96 189.312 25.08C189.312 26.04 189.04 26.92 188.496 27.72C187.968 28.504 187.168 29.128 186.096 29.592C185.024 30.056 183.72 30.288 182.184 30.288Z" fill="#D9D9D9"/>
<path d="M214.173 13.2V30H210.285V23.112H202.653V30H198.765V13.2H202.653V19.824H210.285V13.2H214.173ZM226.284 30.288C224.54 30.288 222.964 29.912 221.556 29.16C220.164 28.408 219.068 27.376 218.268 26.064C217.484 24.736 217.092 23.248 217.092 21.6C217.092 19.952 217.484 18.472 218.268 17.16C219.068 15.832 220.164 14.792 221.556 14.04C222.964 13.288 224.54 12.912 226.284 12.912C228.028 12.912 229.596 13.288 230.988 14.04C232.38 14.792 233.476 15.832 234.276 17.16C235.076 18.472 235.476 19.952 235.476 21.6C235.476 23.248 235.076 24.736 234.276 26.064C233.476 27.376 232.38 28.408 230.988 29.16C229.596 29.912 228.028 30.288 226.284 30.288ZM226.284 26.976C227.276 26.976 228.172 26.752 228.972 26.304C229.772 25.84 230.396 25.2 230.844 24.384C231.308 23.568 231.54 22.64 231.54 21.6C231.54 20.56 231.308 19.632 230.844 18.816C230.396 18 229.772 17.368 228.972 16.92C228.172 16.456 227.276 16.224 226.284 16.224C225.292 16.224 224.396 16.456 223.596 16.92C222.796 17.368 222.164 18 221.7 18.816C221.252 19.632 221.028 20.56 221.028 21.6C221.028 22.64 221.252 23.568 221.7 24.384C222.164 25.2 222.796 25.84 223.596 26.304C224.396 26.752 225.292 26.976 226.284 26.976ZM243.918 30.288C242.59 30.288 241.302 30.112 240.054 29.76C238.822 29.392 237.83 28.92 237.078 28.344L238.398 25.416C239.118 25.944 239.974 26.368 240.966 26.688C241.958 27.008 242.95 27.168 243.942 27.168C245.046 27.168 245.862 27.008 246.39 26.688C246.918 26.352 247.182 25.912 247.182 25.368C247.182 24.968 247.022 24.64 246.702 24.384C246.398 24.112 245.998 23.896 245.502 23.736C245.022 23.576 244.366 23.4 243.534 23.208C242.254 22.904 241.206 22.6 240.39 22.296C239.574 21.992 238.87 21.504 238.278 20.832C237.702 20.16 237.414 19.264 237.414 18.144C237.414 17.168 237.678 16.288 238.206 15.504C238.734 14.704 239.526 14.072 240.582 13.608C241.654 13.144 242.958 12.912 244.494 12.912C245.566 12.912 246.614 13.04 247.638 13.296C248.662 13.552 249.558 13.92 250.326 14.4L249.126 17.352C247.574 16.472 246.022 16.032 244.47 16.032C243.382 16.032 242.574 16.208 242.046 16.56C241.534 16.912 241.278 17.376 241.278 17.952C241.278 18.528 241.574 18.96 242.166 19.248C242.774 19.52 243.694 19.792 244.926 20.064C246.206 20.368 247.254 20.672 248.07 20.976C248.886 21.28 249.582 21.76 250.158 22.416C250.75 23.072 251.046 23.96 251.046 25.08C251.046 26.04 250.774 26.92 250.23 27.72C249.702 28.504 248.902 29.128 247.83 29.592C246.758 30.056 245.454 30.288 243.918 30.288ZM265.779 17.904C264.339 17.072 262.795 16.536 261.147 16.296V30H257.259V16.296C255.611 16.536 254.059 17.072 252.603 17.904L251.283 15C252.435 14.312 253.683 13.792 255.027 13.44C256.371 13.088 257.755 12.912 259.179 12.912C260.619 12.912 262.011 13.088 263.355 13.44C264.715 13.792 265.963 14.312 267.099 15L265.779 17.904ZM269.199 30.192C268.543 30.192 267.991 29.968 267.543 29.52C267.095 29.072 266.871 28.512 266.871 27.84C266.871 27.152 267.095 26.6 267.543 26.184C267.991 25.752 268.543 25.536 269.199 25.536C269.855 25.536 270.407 25.752 270.855 26.184C271.303 26.6 271.527 27.152 271.527 27.84C271.527 28.512 271.303 29.072 270.855 29.52C270.407 29.968 269.855 30.192 269.199 30.192Z" fill="#A4A2AA"/>
<path d="M16.9998 30C17.3938 30 17.7839 29.9225 18.1479 29.7717C18.5119 29.621 18.8426 29.4 19.1212 29.1214C19.3998 28.8429 19.6208 28.5122 19.7716 28.1482C19.9223 27.7842 19.9999 27.3941 19.9999 27.0002C19.9999 21.4305 22.2125 16.0891 26.1508 12.1508C30.089 8.21245 35.4306 5.99993 41.0002 5.99993C46.5697 5.99993 51.9113 8.21245 55.8495 12.1508C59.788 16.0891 62.0004 21.4305 62.0004 27.0002C62.0082 27.7906 62.3277 28.546 62.8896 29.1022C63.4512 29.6583 64.2098 29.9703 65.0005 29.9703C65.7909 29.9703 66.5495 29.6583 67.1111 29.1022C67.673 28.546 67.9925 27.7906 68.0003 27.0002C68.0003 23.4544 67.3019 19.9435 65.9451 16.6676C64.5881 13.3918 62.5994 10.4154 60.0923 7.90816C57.5848 5.40096 54.6084 3.41214 51.3327 2.05527C48.0567 0.698378 44.546 0 41.0002 0C37.4544 0 33.9436 0.698378 30.6676 2.05527C27.3918 3.41214 24.4154 5.40096 21.9082 7.90816C19.401 10.4154 17.4121 13.3918 16.0552 16.6676C14.6984 19.9435 14 23.4544 14 27.0002C14 27.7958 14.3161 28.5588 14.8786 29.1214C15.4412 29.6839 16.2042 30 16.9998 30Z" fill="#D9D9D9"/>
<path d="M79.831 35.9999H53.4208C55.3763 33.4074 56.4323 30.2476 56.429 27.0001C56.429 23.0218 54.8485 19.2065 52.0356 16.3934C49.2224 13.5804 45.407 12 41.4287 12C37.4507 12 33.6354 13.5804 30.8221 16.3934C28.0091 19.2065 26.4287 23.0218 26.4287 27.0001C26.4287 27.7958 26.7448 28.5589 27.3075 29.1215C27.8701 29.6842 28.6332 30.0003 29.4289 30.0003C30.2246 30.0003 30.9878 29.6842 31.5502 29.1215C32.113 28.5589 32.429 27.7958 32.429 27.0001C32.429 25.2201 32.9567 23.48 33.9457 21.9999C34.9346 20.5198 36.3402 19.3662 37.9848 18.685C39.6293 18.0037 41.4389 17.8254 43.1847 18.1727C44.9305 18.5199 46.5344 19.3771 47.7929 20.6357C49.0517 21.8944 49.9089 23.4981 50.2563 25.2439C50.6034 26.9897 50.4252 28.7994 49.7441 30.4438C49.0628 32.0884 47.9094 33.4943 46.4292 34.4832C44.9491 35.4722 43.209 35.9999 41.429 35.9999H3.0301C2.63361 35.996 2.24027 36.0706 1.87283 36.2197C1.50537 36.3686 1.17111 36.589 0.88934 36.8679C0.607573 37.147 0.383893 37.4788 0.231244 37.8448C0.0785946 38.2108 0 38.6035 0 39C0 39.3963 0.0785946 39.7889 0.231244 40.1549C0.383893 40.5209 0.607573 40.8527 0.88934 41.1319C1.17111 41.4107 1.50537 41.6311 1.87283 41.78C2.24027 41.9291 2.63361 42.0037 3.0301 41.9998H79.831C80.6214 41.992 81.3767 41.6725 81.9329 41.1106C82.4891 40.549 82.8011 39.7904 82.8011 39C82.8011 38.2093 82.4891 37.4507 81.9329 36.8891C81.3767 36.3273 80.6214 36.0077 79.831 35.9999Z" fill="#D9D9D9"/>
</svg>
